<svg width="32" height="32" viewBox="0 0 32 32" fill="none" xmlns="http://www.w3.org/2000/svg">
<path fill-rule="evenodd" clip-rule="evenodd" d="M27.5188 10.9944C28.0562 11.2304 28.5398 11.5734 28.9403 12.0025C29.3392 12.449 29.6373 12.9763 29.8141 13.5484C29.991 14.1205 30.0425 14.7239 29.9651 15.3177C29.8777 15.9597 29.64 16.572 29.2714 17.1048C29.5285 17.6193 29.6627 18.1865 29.6634 18.7617V19.0724C29.6626 19.9598 29.3378 20.8164 28.7499 21.4811C28.9642 22.1238 29.0091 22.811 28.8801 23.4761C28.7235 24.2185 28.3489 24.8973 27.8042 25.4256C27.914 25.8501 27.9442 26.2913 27.8931 26.7269C27.7286 28.5454 26.1003 30 24.19 30H12.7961C10.1774 30 8.30001 28.53 7.84151 28.1352C7.6 27.9361 7.40629 27.6853 7.27472 27.4013C7.14314 27.1174 7.07704 26.8074 7.08131 26.4945V15.1378C7.08456 14.746 7.19733 14.363 7.40688 14.032C7.61643 13.701 7.9144 13.4352 8.26711 13.2646C12.7773 10.7377 13.1576 8.0235 13.4103 6.21961L13.4107 6.2164C13.4457 5.935 13.4828 5.67391 13.5199 5.45131C13.9798 3.05594 15.5674 2.00035 16.9387 2.00035C17.138 1.99639 17.3366 2.02597 17.526 2.08785L17.5834 2.10395C20.3596 3.01744 21.1002 6.1688 21.1002 7.88728C21.1053 8.80592 21.0329 9.72335 20.8839 10.6298H25.8147C26.4016 10.6344 26.9815 10.7584 27.5188 10.9944ZM26.7854 18.3925C26.7332 18.2772 26.6563 18.1748 26.5603 18.0925L26.563 18.0974C26.3946 17.9625 26.2596 17.7906 26.1685 17.595C26.0775 17.3993 26.0329 17.1853 26.0383 16.9696C26.0436 16.7539 26.0988 16.5424 26.1994 16.3515C26.3 16.1606 26.4434 15.9956 26.6183 15.8693C26.7713 15.7633 26.9009 15.627 26.9992 15.4689C27.0974 15.3108 27.1622 15.1343 27.1896 14.9502C27.2152 14.7609 27.2002 14.5684 27.1455 14.3854C27.0908 14.2024 26.9977 14.0332 26.8724 13.889C26.7357 13.7461 26.5719 13.6319 26.3905 13.5531C26.2092 13.4742 26.0139 13.4323 25.8161 13.4298H19.08C18.8537 13.4299 18.6307 13.3752 18.4301 13.2702C18.2296 13.1652 18.0574 13.0132 17.9285 12.8271C17.7997 12.6414 17.7178 12.4272 17.6897 12.2029C17.6617 11.9786 17.6884 11.7509 17.7675 11.5391C18.0104 10.8909 18.3002 9.73036 18.3002 7.88728C18.3002 7.86418 18.1462 4.82902 16.8736 4.82902C16.6559 4.82902 16.4165 5.20631 16.2765 5.942C16.2513 6.0981 16.2191 6.3207 16.1876 6.5762C15.9013 8.62997 15.3749 12.3665 9.88132 15.5641V26.1851C10.2943 26.4854 11.415 27.198 12.7961 27.198H24.1921C24.6681 27.198 25.072 26.8627 25.1098 26.435C25.127 26.331 25.122 26.2247 25.0951 26.1228C25.0682 26.021 25.02 25.926 24.9537 25.8442C24.8111 25.6757 24.7103 25.476 24.6596 25.2612C24.6089 25.0464 24.6096 24.8227 24.6618 24.6082C24.7141 24.3938 24.8162 24.1947 24.96 24.0273C25.1038 23.8599 25.2852 23.7288 25.4892 23.6448C25.6901 23.5615 26.0415 23.3578 26.1381 22.9147C26.1645 22.762 26.1588 22.6056 26.1216 22.4552C26.0844 22.3049 26.0164 22.1639 25.9219 22.0411C25.7937 21.8827 25.6997 21.6995 25.6459 21.503C25.592 21.3065 25.5795 21.101 25.6089 20.8994C25.6887 20.4444 25.9526 20.0244 26.3726 19.8333C26.5171 19.7641 26.6394 19.6561 26.7259 19.5214C26.8125 19.3866 26.8598 19.2305 26.8626 19.0703V18.7596C26.864 18.633 26.8376 18.5077 26.7854 18.3925ZM3.4 13.8379H4.2806C5.0538 13.8379 5.68061 14.4647 5.68061 15.2379V27.2609C5.68061 28.0341 5.0538 28.6609 4.2806 28.6609H3.4C2.6268 28.6609 2 28.0341 2 27.2609V15.2379C2 14.4647 2.6268 13.8379 3.4 13.8379Z" fill="white"/>
</svg>
