<svg width="216" height="64" viewBox="0 0 216 64" fill="none" xmlns="http://www.w3.org/2000/svg">
<g clip-path="url(#clip0)">
<path d="M176.067 8.59297e-05H15.2426C14.6564 8.59297e-05 14.0772 8.59298e-05 13.4925 0.00328593C13.0031 0.00648593 12.5175 0.0157819 12.0234 0.0236059C10.95 0.0362488 9.87901 0.130768 8.81989 0.306342C7.76227 0.485738 6.73777 0.823951 5.78106 1.30954C4.82551 1.79924 3.95241 2.43555 3.19341 3.1954C2.43043 3.9531 1.79442 4.82891 1.30985 5.78914C0.823943 6.74746 0.487012 7.77439 0.310697 8.83445C0.132705 9.89318 0.0369261 10.9641 0.0242195 12.0377C0.00938405 12.5282 0.00781738 13.0204 0 13.511V50.4938C0.00781738 50.9906 0.00938405 51.4719 0.0242195 51.9689C0.03693 53.0424 0.132709 54.1132 0.310697 55.1719C0.486526 56.2326 0.823476 57.2601 1.30985 58.2188C1.7942 59.1759 2.4303 60.0482 3.19341 60.8017C3.94953 61.5649 4.8232 62.2016 5.78106 62.6876C6.73776 63.1745 7.76215 63.5147 8.81989 63.6969C9.87919 63.8711 10.95 63.9656 12.0234 63.9798C12.5175 63.9906 13.0031 63.9969 13.4925 63.9969C14.0772 64.0001 14.6564 64.0001 15.2426 64.0001H176.067C176.641 64.0001 177.225 64.0001 177.799 63.9969C178.287 63.9969 178.786 63.9906 179.273 63.9798C180.345 63.9664 181.413 63.8718 182.471 63.6969C183.532 63.5134 184.56 63.1733 185.521 62.6876C186.478 62.2014 187.351 61.5646 188.106 60.8017C188.868 60.0452 189.505 59.1736 189.995 58.2188C190.478 57.2594 190.812 56.232 190.985 55.1719C191.163 54.1131 191.263 53.0425 191.282 51.9689C191.288 51.4719 191.288 50.9906 191.288 50.4938C191.301 49.9126 191.301 49.3345 191.301 48.7438V15.2579C191.301 14.672 191.301 14.0907 191.288 13.511C191.288 13.0204 191.288 12.5282 191.282 12.0376C191.263 10.964 191.163 9.89326 190.985 8.83439C190.811 7.77494 190.478 6.74809 189.995 5.78908C189.009 3.8644 187.444 2.29773 185.521 1.3094C184.56 0.824994 183.532 0.486871 182.471 0.306198C181.414 0.12985 180.345 0.0352984 179.273 0.0233819C178.786 0.0155739 178.287 0.00619793 177.799 0.00307793C177.225 -0.00012207 176.641 -0.00012207 176.067 -0.00012207V8.59297e-05Z" fill="#A6A6A6"/>
<path d="M13.5003 62.6C13.0132 62.6 12.5379 62.5937 12.0547 62.5828C11.0536 62.5698 10.0548 62.4826 9.06656 62.3219C8.14508 62.163 7.25242 61.8676 6.41802 61.4452C5.59126 61.0264 4.8372 60.4772 4.18471 59.8187C3.52277 59.1679 2.97168 58.4132 2.55327 57.5843C2.13025 56.75 1.8375 55.8558 1.68521 54.9328C1.52075 53.9409 1.43177 52.9381 1.41903 51.9328C1.4089 51.5953 1.39563 50.4718 1.39563 50.4718V13.5109C1.39563 13.5109 1.40976 12.4047 1.41911 12.0796C1.43131 11.0759 1.51977 10.0746 1.68374 9.08433C1.83631 8.15876 2.12929 7.26196 2.55254 6.42497C2.96941 5.59667 3.51744 4.84134 4.17539 4.18825C4.8326 3.52896 5.58907 2.97693 6.41723 2.5523C7.24972 2.13131 8.1407 1.83794 9.06031 1.682C10.0518 1.5197 11.054 1.43196 12.0586 1.4195L13.5011 1.39996H177.792L179.251 1.42028C180.247 1.43212 181.24 1.51908 182.222 1.68043C183.151 1.83832 184.051 2.13375 184.893 2.55699C186.553 3.41274 187.903 4.76662 188.754 6.42888C189.171 7.26009 189.459 8.14957 189.61 9.06715C189.776 10.0655 189.869 11.0747 189.888 12.0867C189.892 12.5398 189.892 13.0265 189.892 13.5109C189.905 14.1109 189.905 14.682 189.905 15.2578V48.7436C189.905 49.3249 189.905 49.8921 189.892 50.464C189.892 50.9843 189.892 51.4609 189.886 51.9515C189.867 52.9454 189.776 53.9365 189.613 54.9171C189.464 55.8468 189.173 56.748 188.75 57.5891C188.328 58.409 187.78 59.1572 187.126 59.8062C186.473 60.4683 185.718 61.0207 184.889 61.4422C184.049 61.8678 183.15 62.1643 182.222 62.3219C181.234 62.4834 180.235 62.5706 179.234 62.5828C178.766 62.5937 178.276 62.6 177.799 62.6L176.067 62.6032L13.5003 62.6Z" fill="black"/>
<path d="M39.5968 32.4817C39.614 31.1462 39.9684 29.8368 40.6271 28.6753C41.2858 27.5138 42.2274 26.5379 43.3641 25.8384C42.642 24.8061 41.6893 23.9566 40.5817 23.3574C39.4741 22.7581 38.2421 22.4255 36.9837 22.3861C34.2992 22.1041 31.6967 23.9938 30.3287 23.9938C28.9342 23.9938 26.828 22.4141 24.56 22.4608C23.0929 22.5083 21.6632 22.9352 20.41 23.7001C19.1569 24.465 18.1231 25.5417 17.4093 26.8254C14.3176 32.1829 16.6238 40.0566 19.5854 44.3871C21.0672 46.5077 22.799 48.8764 25.065 48.7924C27.2824 48.7004 28.1106 47.3772 30.7872 47.3772C33.439 47.3772 34.2159 48.7924 36.5279 48.739C38.9073 48.7004 40.4065 46.609 41.8362 44.4684C42.9009 42.9574 43.7202 41.2875 44.2637 39.5204C42.8813 38.9352 41.7016 37.9557 40.8717 36.704C40.0418 35.4524 39.5984 33.9839 39.5968 32.4817Z" fill="white"/>
<path d="M35.2299 19.5378C36.5272 17.9791 37.1664 15.9756 37.0116 13.9528C35.0296 14.1612 33.1987 15.1093 31.8838 16.6082C31.2409 17.3405 30.7486 18.1924 30.4348 19.1152C30.1211 20.038 29.9922 21.0137 30.0554 21.9864C31.0468 21.9966 32.0276 21.7816 32.9239 21.3574C33.8202 20.9333 34.6087 20.3111 35.2299 19.5378Z" fill="white"/>
<path d="M67.6267 43.4232H60.0597L58.2425 48.7935H55.0374L62.2047 28.9247H65.5347L72.7021 48.7935H69.4423L67.6267 43.4232ZM60.8434 40.9451H66.8415L63.8846 32.2295H63.8019L60.8434 40.9451Z" fill="white"/>
<path d="M88.1812 41.5511C88.1812 46.0526 85.7738 48.9448 82.141 48.9448C81.2207 48.993 80.3055 48.7808 79.5001 48.3326C78.6947 47.8844 78.0317 47.2182 77.587 46.4104H77.5183V53.5854H74.5474V34.3073H77.4231V36.7167H77.4777C77.9429 35.9127 78.6171 35.25 79.4286 34.7991C80.2401 34.3481 81.1586 34.1258 82.0863 34.1557C85.7597 34.1558 88.1812 37.062 88.1812 41.5511ZM85.1275 41.5511C85.1275 38.6183 83.6132 36.6901 81.3026 36.6901C79.0327 36.6901 77.5058 38.6589 77.5058 41.5511C77.5058 44.4698 79.0327 46.4245 81.3026 46.4245C83.6132 46.4245 85.1275 44.5104 85.1275 41.5511Z" fill="white"/>
<path d="M104.111 41.5511C104.111 46.0526 101.704 48.9448 98.0713 48.9448C97.151 48.993 96.2358 48.7808 95.4304 48.3326C94.625 47.8844 93.962 47.2182 93.5173 46.4104H93.4486V53.5854H90.4777V34.3073H93.3533V36.7167H93.408C93.8731 35.9127 94.5473 35.25 95.3588 34.7991C96.1704 34.3481 97.0889 34.1258 98.0166 34.1557C101.69 34.1557 104.111 37.062 104.111 41.5511ZM101.058 41.5511C101.058 38.6183 99.5435 36.6901 97.2329 36.6901C94.963 36.6901 93.4361 38.6589 93.4361 41.5511C93.4361 44.4698 94.963 46.4245 97.2329 46.4245C99.5435 46.4245 101.058 44.5104 101.058 41.5511H101.058Z" fill="white"/>
<path d="M114.64 43.2577C114.86 45.228 116.773 46.5217 119.386 46.5217C121.89 46.5217 123.692 45.228 123.692 43.4514C123.692 41.9092 122.605 40.9858 120.032 40.353L117.46 39.7326C113.814 38.8514 112.122 37.1451 112.122 34.3764C112.122 30.9483 115.107 28.5936 119.345 28.5936C123.54 28.5936 126.416 30.9483 126.513 34.3764H123.514C123.334 32.3936 121.697 31.1967 119.303 31.1967C116.91 31.1967 115.272 32.4076 115.272 34.1701C115.272 35.5748 116.318 36.4014 118.877 37.0341L121.064 37.5716C125.137 38.5357 126.83 40.1732 126.83 43.0795C126.83 46.7966 123.871 49.1248 119.166 49.1248C114.763 49.1248 111.791 46.8513 111.599 43.2576L114.64 43.2577Z" fill="white"/>
<path d="M133.241 30.8795V34.3076H135.994V36.6623H133.241V44.6483C133.241 45.8889 133.793 46.467 135.002 46.467C135.329 46.4613 135.655 46.4384 135.98 46.3982V48.7389C135.436 48.8406 134.883 48.8867 134.33 48.8764C131.399 48.8764 130.256 47.7748 130.256 44.9654V36.6623H128.152V34.3076H130.256V30.8795H133.241Z" fill="white"/>
<path d="M137.588 41.5514C137.588 36.9936 140.27 34.1296 144.452 34.1296C148.649 34.1296 151.318 36.9936 151.318 41.5514C151.318 46.1218 148.663 48.9733 144.452 48.9733C140.243 48.9733 137.588 46.1218 137.588 41.5514ZM148.291 41.5514C148.291 38.4249 146.86 36.5796 144.452 36.5796C142.045 36.5796 140.615 38.439 140.615 41.5514C140.615 44.6905 142.045 46.5218 144.452 46.5218C146.86 46.5218 148.291 44.6905 148.291 41.5514H148.291Z" fill="white"/>
<path d="M153.768 34.3072H156.601V36.7728H156.67C156.862 36.0028 157.313 35.3223 157.947 34.8456C158.581 34.369 159.359 34.1254 160.152 34.1557C160.494 34.1545 160.835 34.1917 161.169 34.2666V37.0478C160.737 36.9157 160.286 36.855 159.835 36.8682C159.403 36.8506 158.973 36.9268 158.573 37.0914C158.174 37.256 157.815 37.5052 157.521 37.8218C157.227 38.1385 157.004 38.515 156.869 38.9257C156.734 39.3364 156.69 39.7714 156.739 40.201V48.7932H153.768L153.768 34.3072Z" fill="white"/>
<path d="M174.867 44.5389C174.468 47.1686 171.909 48.9733 168.635 48.9733C164.424 48.9733 161.811 46.1498 161.811 41.6201C161.811 37.0764 164.438 34.1295 168.51 34.1295C172.514 34.1295 175.033 36.8826 175.033 41.2748V42.2936H164.81V42.4733C164.763 43.0064 164.83 43.5434 165.006 44.0488C165.182 44.5541 165.463 45.0162 165.832 45.4043C166.2 45.7923 166.646 46.0976 167.142 46.2997C167.637 46.5017 168.169 46.5961 168.704 46.5764C169.406 46.6422 170.11 46.4795 170.712 46.1124C171.315 45.7453 171.782 45.1934 172.046 44.5389L174.867 44.5389ZM164.824 40.2155H172.06C172.087 39.7361 172.014 39.2564 171.847 38.8065C171.68 38.3565 171.421 37.9461 171.088 37.6008C170.754 37.2556 170.353 36.9831 169.91 36.8003C169.466 36.6176 168.99 36.5286 168.51 36.5389C168.026 36.536 167.547 36.629 167.099 36.8126C166.651 36.9962 166.244 37.2667 165.902 37.6085C165.559 37.9503 165.287 38.3567 165.102 38.8041C164.917 39.2516 164.823 39.7312 164.824 40.2155V40.2155Z" fill="white"/>
<path d="M60.4707 13.9701C61.0935 13.9254 61.7185 14.0196 62.3006 14.2459C62.8827 14.4721 63.4074 14.8249 63.8367 15.2787C64.2661 15.7325 64.5895 16.276 64.7836 16.8701C64.9776 17.4641 65.0376 18.0938 64.959 18.7139C64.959 21.7639 63.312 23.5171 60.4707 23.5171H57.0251V13.9701H60.4707ZM58.5067 22.1669H60.3052C60.7502 22.1935 61.1956 22.1205 61.609 21.9531C62.0223 21.7857 62.3931 21.5282 62.6944 21.1993C62.9958 20.8704 63.22 20.4784 63.3509 20.0518C63.4818 19.6252 63.5159 19.1748 63.4509 18.7333C63.5112 18.2936 63.4736 17.846 63.3407 17.4225C63.2078 16.999 62.983 16.6102 62.6824 16.2839C62.3817 15.9576 62.0127 15.702 61.6017 15.5352C61.1907 15.3684 60.748 15.2947 60.3052 15.3193H58.5067V22.1669Z" fill="white"/>
<path d="M66.6326 19.9115C66.5874 19.4381 66.6415 18.9604 66.7915 18.5091C66.9415 18.0577 67.1841 17.6428 67.5038 17.2908C67.8234 16.9389 68.213 16.6576 68.6476 16.4652C69.0822 16.2727 69.5522 16.1733 70.0274 16.1733C70.5026 16.1733 70.9726 16.2727 71.4072 16.4652C71.8418 16.6576 72.2314 16.9389 72.5511 17.2908C72.8707 17.6428 73.1133 18.0577 73.2633 18.5091C73.4133 18.9604 73.4675 19.4381 73.4222 19.9115C73.4683 20.3855 73.4148 20.8639 73.2652 21.3159C73.1156 21.768 72.8731 22.1837 72.5534 22.5363C72.2337 22.889 71.8438 23.1708 71.4088 23.3637C70.9737 23.5565 70.5032 23.6561 70.0274 23.6561C69.5516 23.6561 69.0811 23.5565 68.6461 23.3637C68.211 23.1708 67.8211 22.889 67.5014 22.5363C67.1817 22.1837 66.9392 21.768 66.7896 21.3159C66.64 20.8639 66.5865 20.3855 66.6326 19.9115ZM71.9609 19.9115C71.9609 18.3498 71.2599 17.4366 70.0298 17.4366C68.7949 17.4366 68.1002 18.3498 68.1002 19.9116C68.1002 21.4858 68.7949 22.392 70.0298 22.392C71.26 22.392 71.9609 21.4795 71.9609 19.9115H71.9609Z" fill="white"/>
<path d="M82.4473 23.517H80.9736L79.4858 18.2107H79.3734L77.8918 23.517H76.4321L74.4479 16.3123H75.8888L77.1784 21.8099H77.2845L78.7645 16.3123H80.1274L81.6074 21.8099H81.7198L83.0031 16.3123H84.4238L82.4473 23.517Z" fill="white"/>
<path d="M86.0928 16.3117H87.4604V17.4562H87.5665C87.7466 17.0451 88.0504 16.7006 88.4354 16.4705C88.8205 16.2404 89.2677 16.1363 89.7147 16.1726C90.065 16.1463 90.4167 16.1991 90.7438 16.3273C91.0708 16.4554 91.3649 16.6556 91.6042 16.9129C91.8435 17.1703 92.0219 17.4782 92.1261 17.8139C92.2303 18.1497 92.2578 18.5045 92.2063 18.8523V23.5163H90.7857V19.2094C90.7857 18.0515 90.283 17.4758 89.2323 17.4758C88.9945 17.4647 88.7571 17.5052 88.5364 17.5945C88.3157 17.6838 88.1169 17.8199 87.9536 17.9933C87.7904 18.1667 87.6665 18.3734 87.5905 18.5992C87.5145 18.825 87.4883 19.0646 87.5134 19.3015V23.5164H86.0928L86.0928 16.3117Z" fill="white"/>
<path d="M94.47 13.4998H95.8906V23.517H94.47V13.4998Z" fill="white"/>
<path d="M97.8656 19.9116C97.8204 19.4381 97.8746 18.9604 98.0246 18.5091C98.1747 18.0577 98.4173 17.6428 98.737 17.2908C99.0566 16.9388 99.4463 16.6576 99.8809 16.4651C100.316 16.2727 100.786 16.1733 101.261 16.1733C101.736 16.1733 102.206 16.2727 102.641 16.4651C103.075 16.6576 103.465 16.9388 103.785 17.2908C104.104 17.6428 104.347 18.0577 104.497 18.5091C104.647 18.9604 104.701 19.4381 104.656 19.9116C104.702 20.3856 104.649 20.864 104.499 21.316C104.349 21.768 104.107 22.1837 103.787 22.5364C103.467 22.8891 103.077 23.1709 102.642 23.3637C102.207 23.5566 101.737 23.6562 101.261 23.6562C100.785 23.6562 100.314 23.5566 99.8794 23.3637C99.4444 23.1709 99.0544 22.8891 98.7347 22.5364C98.4149 22.1837 98.1724 21.768 98.0228 21.316C97.8731 20.864 97.8196 20.3856 97.8656 19.9116ZM103.194 19.9116C103.194 18.3499 102.493 17.4366 101.263 17.4366C100.028 17.4366 99.3332 18.3499 99.3332 19.9116C99.3332 21.4859 100.028 22.3921 101.263 22.3921C102.493 22.3921 103.194 21.4796 103.194 19.9116H103.194Z" fill="white"/>
<path d="M106.151 21.4795C106.151 20.1826 107.116 19.435 108.829 19.3287L110.779 19.2162V18.5944C110.779 17.8334 110.276 17.4037 109.305 17.4037C108.512 17.4037 107.962 17.6952 107.805 18.2045H106.429C106.575 16.967 107.738 16.1733 109.371 16.1733C111.175 16.1733 112.193 17.0725 112.193 18.5944V23.517H110.826V22.5045H110.713C110.485 22.8677 110.165 23.1638 109.785 23.3625C109.405 23.5613 108.979 23.6555 108.551 23.6357C108.249 23.6672 107.943 23.6349 107.654 23.541C107.365 23.4471 107.099 23.2936 106.873 23.0905C106.647 22.8873 106.466 22.639 106.342 22.3615C106.218 22.0841 106.153 21.7836 106.151 21.4795ZM110.779 20.8639V20.2616L109.021 20.374C108.03 20.4404 107.58 20.778 107.58 21.4131C107.58 22.0615 108.142 22.4389 108.915 22.4389C109.141 22.4618 109.37 22.4389 109.587 22.3716C109.805 22.3042 110.007 22.1938 110.18 22.0469C110.354 21.8999 110.497 21.7195 110.6 21.5162C110.703 21.313 110.763 21.0912 110.779 20.8639Z" fill="white"/>
<path d="M114.06 19.9116C114.06 17.635 115.23 16.1928 117.049 16.1928C117.498 16.1721 117.945 16.2799 118.336 16.5037C118.727 16.7276 119.046 17.0581 119.256 17.4568H119.362V13.4998H120.783V23.517H119.422V22.3787H119.309C119.083 22.7747 118.752 23.1012 118.354 23.3227C117.955 23.5443 117.504 23.6525 117.049 23.6357C115.217 23.6358 114.06 22.1936 114.06 19.9116ZM115.528 19.9116C115.528 21.4397 116.248 22.3592 117.451 22.3592C118.649 22.3592 119.389 21.4264 119.389 19.9178C119.389 18.4162 118.641 17.4702 117.451 17.4702C116.255 17.4702 115.528 18.3959 115.528 19.9116H115.528Z" fill="white"/>
<path d="M126.661 19.9115C126.615 19.4381 126.67 18.9604 126.82 18.5091C126.97 18.0577 127.212 17.6428 127.532 17.2908C127.851 16.9389 128.241 16.6576 128.676 16.4652C129.11 16.2727 129.58 16.1733 130.055 16.1733C130.531 16.1733 131.001 16.2727 131.435 16.4652C131.87 16.6576 132.259 16.9389 132.579 17.2908C132.899 17.6428 133.141 18.0577 133.291 18.5091C133.441 18.9604 133.496 19.4381 133.45 19.9115C133.496 20.3855 133.443 20.8639 133.293 21.3159C133.144 21.768 132.901 22.1837 132.581 22.5363C132.262 22.889 131.872 23.1708 131.437 23.3637C131.002 23.5565 130.531 23.6561 130.055 23.6561C129.58 23.6561 129.109 23.5565 128.674 23.3637C128.239 23.1708 127.849 22.889 127.529 22.5363C127.21 22.1837 126.967 21.768 126.818 21.3159C126.668 20.8639 126.615 20.3855 126.661 19.9115ZM131.989 19.9115C131.989 18.3498 131.288 17.4366 130.058 17.4366C128.823 17.4366 128.128 18.3498 128.128 19.9116C128.128 21.4858 128.823 22.392 130.058 22.392C131.288 22.392 131.989 21.4795 131.989 19.9115Z" fill="white"/>
<path d="M135.356 16.3117H136.724V17.4562H136.83C137.01 17.0451 137.314 16.7006 137.699 16.4705C138.084 16.2404 138.531 16.1363 138.978 16.1726C139.329 16.1463 139.68 16.1991 140.007 16.3273C140.335 16.4554 140.629 16.6556 140.868 16.9129C141.107 17.1703 141.286 17.4782 141.39 17.8139C141.494 18.1497 141.521 18.5045 141.47 18.8523V23.5163H140.049V19.2094C140.049 18.0515 139.547 17.4758 138.496 17.4758C138.258 17.4647 138.021 17.5052 137.8 17.5945C137.579 17.6838 137.381 17.8199 137.217 17.9933C137.054 18.1667 136.93 18.3734 136.854 18.5992C136.778 18.825 136.752 19.0646 136.777 19.3015V23.5164H135.356V16.3117Z" fill="white"/>
<path d="M149.498 14.5185V16.3451H151.057V17.5427H149.498V21.2474C149.498 22.0021 149.808 22.3326 150.516 22.3326C150.697 22.332 150.877 22.321 151.057 22.2997V23.4841C150.802 23.5298 150.544 23.5541 150.284 23.5568C148.705 23.5568 148.075 23.0005 148.075 21.6115V17.5427H146.933V16.345H148.075V14.5185H149.498Z" fill="white"/>
<path d="M152.998 13.4998H154.406V17.4701H154.518C154.707 17.0552 155.019 16.7087 155.412 16.4777C155.805 16.2468 156.259 16.1426 156.713 16.1795C157.062 16.1605 157.41 16.2188 157.733 16.35C158.057 16.4813 158.347 16.6824 158.584 16.9389C158.821 17.1955 158.998 17.5011 159.103 17.8341C159.209 18.1672 159.239 18.5193 159.192 18.8654V23.517H157.77V19.2162C157.77 18.0654 157.235 17.4826 156.231 17.4826C155.987 17.4626 155.741 17.4962 155.511 17.5811C155.282 17.6659 155.073 17.8001 154.9 17.974C154.728 18.148 154.595 18.3577 154.512 18.5883C154.429 18.8189 154.397 19.0649 154.419 19.3092V23.517H152.998L152.998 13.4998Z" fill="white"/>
<path d="M167.476 21.5718C167.283 22.2302 166.865 22.7998 166.295 23.1808C165.724 23.5619 165.038 23.7301 164.357 23.6561C163.883 23.6687 163.411 23.5778 162.976 23.3897C162.54 23.2017 162.15 22.921 161.834 22.5672C161.518 22.2134 161.282 21.7949 161.143 21.3407C161.005 20.8866 160.967 20.4078 161.032 19.9374C160.968 19.4656 161.007 18.9857 161.146 18.5302C161.284 18.0747 161.518 17.6543 161.833 17.2974C162.148 16.9405 162.535 16.6554 162.97 16.4615C163.404 16.2675 163.875 16.1693 164.351 16.1733C166.354 16.1733 167.562 17.5429 167.562 19.8053V20.3015H162.479V20.3812C162.457 20.6456 162.49 20.9117 162.576 21.1625C162.663 21.4133 162.801 21.6432 162.981 21.8375C163.162 22.0319 163.381 22.1863 163.624 22.2909C163.868 22.3956 164.131 22.4481 164.396 22.4452C164.736 22.486 165.08 22.4248 165.385 22.2692C165.69 22.1137 165.942 21.8709 166.108 21.5717L167.476 21.5718ZM162.479 19.2499H166.115C166.133 19.0081 166.1 18.7652 166.018 18.5369C165.937 18.3085 165.809 18.0997 165.642 17.924C165.475 17.7482 165.273 17.6093 165.049 17.5162C164.826 17.4232 164.585 17.3779 164.343 17.3835C164.097 17.3804 163.853 17.4266 163.626 17.5193C163.398 17.612 163.191 17.7494 163.018 17.9233C162.844 18.0973 162.707 18.3042 162.614 18.5321C162.522 18.7599 162.476 19.004 162.479 19.2499H162.479Z" fill="white"/>
</g>
<defs>
<clipPath id="clip0">
<rect width="191.301" height="64" fill="white"/>
</clipPath>
</defs>
</svg>
