<svg width="32" height="32" viewBox="0 0 32 32" fill="none" xmlns="http://www.w3.org/2000/svg">
<path d="M15.9986 29.9999H4.7042C4.41073 29.9999 4.12241 29.9227 3.86822 29.776C3.61403 29.6293 3.40291 29.4183 3.25606 29.1642C3.10921 28.9101 3.0318 28.6219 3.03161 28.3284C3.03141 28.0349 3.10844 27.7466 3.25496 27.4923L4.9377 24.5735C3.27741 22.4307 2.27489 19.852 2.05187 17.1505C1.82884 14.449 2.3949 11.7408 3.68131 9.35476C4.96773 6.96872 6.91917 5.00747 9.29871 3.70909C11.6783 2.41071 14.3836 1.83106 17.0862 2.04052C23.9187 2.56083 29.4517 8.10778 29.958 14.9428C30.1099 16.8662 29.859 18.8002 29.2214 20.6212C28.5838 22.4422 27.5735 24.1103 26.255 25.5189C24.9438 26.9289 23.3568 28.0543 21.5924 28.8251C19.828 29.596 17.924 29.9958 15.9986 29.9999ZM6.65978 27.1953H15.9986C17.5391 27.1923 19.0626 26.8726 20.4744 26.2561C21.8862 25.6396 23.1562 24.7394 24.2055 23.6116C25.2606 22.4839 26.069 21.1486 26.5792 19.691C27.0894 18.2334 27.2902 16.6854 27.1687 15.1458C26.7639 9.68138 22.3463 5.24737 16.8755 4.82986C15.3343 4.70556 13.784 4.90399 12.3238 5.41245C10.8635 5.92091 9.5253 6.72823 8.39456 7.7829C6.24773 9.76392 4.96173 12.5067 4.81183 15.424C4.66193 18.3413 5.66005 21.2014 7.59253 23.392C7.8148 23.6439 7.95248 23.9591 7.98617 24.2933C8.01986 24.6275 7.94788 24.9638 7.78035 25.255L6.65978 27.1953ZM10.9123 14.2956C10.5679 14.2953 10.2312 14.3972 9.94467 14.5884C9.65818 14.7796 9.43482 15.0514 9.30284 15.3695C9.17087 15.6876 9.1362 16.0378 9.20324 16.3756C9.27028 16.7134 9.43601 17.0238 9.67946 17.2674C9.9229 17.511 10.2331 17.677 10.5709 17.7443C10.9087 17.8116 11.2588 17.7771 11.5771 17.6454C11.8953 17.5137 12.1673 17.2905 12.3587 17.0041C12.55 16.7178 12.6522 16.3811 12.6522 16.0367C12.6523 15.8081 12.6075 15.5817 12.5201 15.3705C12.4327 15.1593 12.3046 14.9673 12.143 14.8056C11.9815 14.6439 11.7896 14.5157 11.5784 14.4282C11.3673 14.3406 11.1409 14.2956 10.9123 14.2956ZM15.5532 14.2956C15.2088 14.2956 14.8722 14.3977 14.5859 14.589C14.2996 14.7803 14.0764 15.0523 13.9446 15.3704C13.8128 15.6886 13.7784 16.0386 13.8455 16.3764C13.9127 16.7141 14.0785 17.0244 14.322 17.2679C14.5655 17.5114 14.8758 17.6772 15.2135 17.7444C15.5513 17.8115 15.9013 17.7771 16.2195 17.6453C16.5376 17.5135 16.8096 17.2903 17.0009 17.004C17.1922 16.7177 17.2943 16.3811 17.2943 16.0367C17.2945 15.8079 17.2495 15.5813 17.162 15.3699C17.0745 15.1585 16.9461 14.9665 16.7843 14.8047C16.6224 14.643 16.4303 14.5148 16.2188 14.4274C16.0073 14.34 15.7807 14.2952 15.5519 14.2956H15.5532ZM20.4847 14.2956C20.1403 14.2953 19.8035 14.3972 19.517 14.5884C19.2305 14.7796 19.0072 15.0514 18.8752 15.3695C18.7432 15.6876 18.7085 16.0378 18.7756 16.3756C18.8426 16.7134 19.0083 17.0238 19.2518 17.2674C19.4952 17.511 19.8055 17.677 20.1433 17.7443C20.481 17.8116 20.8312 17.7771 21.1494 17.6454C21.4676 17.5137 21.7396 17.2905 21.931 17.0041C22.1224 16.7178 22.2245 16.3811 22.2245 16.0367C22.2245 15.5749 22.0411 15.1321 21.7146 14.8056C21.388 14.479 20.9452 14.2956 20.4834 14.2956H20.4847Z" fill="white"/>
</svg>
