<svg width="32" height="32" viewBox="0 0 32 32" fill="none" xmlns="http://www.w3.org/2000/svg">
<path fill-rule="evenodd" clip-rule="evenodd" d="M21.3585 3.0661C23.9167 4.12575 26.1031 5.92041 27.641 8.223C29.1788 10.5252 29.9997 13.2315 30 16C29.9961 19.7118 28.5199 23.2705 25.8952 25.8952C23.2705 28.5199 19.7119 29.9961 16 30C13.9299 30 11.8855 29.5409 10.0141 28.6558C8.14276 27.7707 6.49096 26.4816 5.17771 24.8813C3.86445 23.2811 2.92242 21.4095 2.41947 19.4014C1.91652 17.3933 1.86517 15.2986 2.2691 13.2682C2.67304 11.2379 3.52222 9.32239 4.75547 7.65969C5.98873 5.99699 7.57537 4.62848 9.40113 3.65273C11.2269 2.67697 13.2463 2.11826 15.314 2.01682C17.3816 1.91538 19.446 2.27374 21.3585 3.0661ZM21.759 25.6067C23.1794 24.7554 24.3934 23.5998 25.3135 22.223V22.2237C26.5441 20.3814 27.2006 18.2155 27.2 16C27.195 13.0317 26.0132 10.1865 23.9137 8.08816C21.8142 5.98984 18.9683 4.80963 16 4.8063V4.8C14.344 4.80024 12.7086 5.1677 11.2117 5.87595C9.71474 6.58419 8.39348 7.61558 7.34306 8.89584C6.29264 10.1761 5.5392 11.6734 5.13699 13.2798C4.73478 14.8863 4.69382 16.5619 5.01706 18.1861C5.449 20.3585 6.51578 22.354 8.08235 23.9198C9.25334 25.0907 10.6694 25.9873 12.2286 26.5452C13.7877 27.1031 15.4512 27.3082 17.0992 27.146C18.7471 26.9837 20.3386 26.458 21.759 25.6067ZM22.23 10.7094C22.3552 10.7586 22.4694 10.8321 22.566 10.9257C22.6652 11.0169 22.7439 11.1281 22.797 11.2519C22.8476 11.3757 22.8714 11.5088 22.867 11.6425C22.8464 11.9703 22.7915 12.295 22.7032 12.6113L20.8909 19.9424C20.7677 20.4408 20.6638 20.8036 20.5794 21.0309C20.4949 21.2646 20.352 21.4729 20.1643 21.6357C19.9687 21.8093 19.6925 21.8961 19.3355 21.8961C19.0441 21.9107 18.757 21.8211 18.5256 21.6434C18.3385 21.494 18.1937 21.2983 18.1056 21.0757C18.0263 20.8652 17.9147 20.5061 17.771 19.9984L16.0112 13.4716L14.2311 19.9984C14.0925 20.494 13.9819 20.8482 13.9 21.0638C13.8112 21.2934 13.6634 21.4955 13.4716 21.6497C13.2397 21.8315 12.9496 21.9228 12.6554 21.9066C12.4247 21.9125 12.1963 21.8588 11.9925 21.7505C11.8149 21.6469 11.6676 21.4985 11.5655 21.32C11.4455 21.111 11.3539 20.8869 11.2932 20.6536C11.2232 20.3988 11.1609 20.1622 11.1063 19.9438L9.30311 12.6113C9.21209 12.2944 9.15737 11.9682 9.14001 11.639C9.13623 11.507 9.16007 11.3756 9.21001 11.2533C9.25929 11.1309 9.33342 11.0201 9.42771 10.9278C9.52476 10.8326 9.63998 10.7578 9.76651 10.708C9.89277 10.6583 10.0278 10.6345 10.1634 10.638C10.5638 10.638 10.8359 10.767 10.9796 11.0251C11.1499 11.3803 11.2709 11.7571 11.3394 12.1451L12.7646 18.5032L14.362 12.5588C14.4496 12.2069 14.5566 11.8601 14.6826 11.52C14.7812 11.2761 14.9428 11.0628 15.1509 10.9019C15.4011 10.7168 15.7081 10.6249 16.0189 10.6422C16.3906 10.6422 16.6783 10.7332 16.8848 10.9138C17.0736 11.072 17.2203 11.2745 17.3118 11.5032C17.3893 11.7174 17.4957 12.0674 17.631 12.5532L19.241 18.5032L20.6641 12.1451C20.7159 11.8819 20.7816 11.6216 20.8608 11.3653C20.9255 11.1747 21.035 11.0023 21.18 10.8627C21.2691 10.7841 21.3728 10.7237 21.4852 10.6849C21.5976 10.6465 21.7166 10.631 21.8352 10.6394C21.9702 10.6359 22.1044 10.6597 22.23 10.7094Z" fill="white"/>
</svg>
