<svg width="32" height="32" viewBox="0 0 32 32" fill="none" xmlns="http://www.w3.org/2000/svg">
<path fill-rule="evenodd" clip-rule="evenodd" d="M15.9615 7.30739C16.1132 6.76275 15.8058 6.19509 15.2747 6.03948C14.7437 5.88387 14.1902 6.19924 14.0385 6.74388L12.6743 11.6409H9C8.44772 11.6409 8 12.1001 8 12.6665C8 13.2329 8.44772 13.6921 9 13.6921H12.1028L10.7635 18.5H7C6.44772 18.5 6 18.9592 6 19.5256C6 20.092 6.44772 20.5512 7 20.5512H10.192L9.03848 24.6921C8.88675 25.2368 9.19424 25.8044 9.72528 25.96C10.2563 26.1156 10.8098 25.8003 10.9615 25.2556L12.2721 20.5512H17.192L16.0385 24.6921C15.8868 25.2368 16.1942 25.8044 16.7253 25.96C17.2563 26.1156 17.8098 25.8003 17.9615 25.2556L19.2721 20.5512H23C23.5523 20.5512 24 20.092 24 19.5256C24 18.9592 23.5523 18.5 23 18.5H19.8435L21.1829 13.6921H25C25.5523 13.6921 26 13.2329 26 12.6665C26 12.1001 25.5523 11.6409 25 11.6409H21.7543L22.9615 7.30739C23.1132 6.76275 22.8058 6.19509 22.2747 6.03948C21.7437 5.88387 21.1902 6.19924 21.0385 6.74388L19.6743 11.6409H14.7543L15.9615 7.30739ZM17.7635 18.5L19.1028 13.6921H14.1829L12.8435 18.5H17.7635Z" fill="white"/>
</svg>
