<svg width="32" height="32" viewBox="0 0 32 32" fill="none" xmlns="http://www.w3.org/2000/svg">
<circle cx="16" cy="16" r="16" fill="#ED568E"/>
<path d="M20.7371 15.1567C20.7571 15.5462 20.6948 15.9355 20.5543 16.2993C20.4137 16.663 20.198 16.9931 19.9213 17.2679C19.6376 17.5398 19.3376 17.8036 19.0475 18.0547C18.9025 18.1807 18.7565 18.3067 18.6124 18.4363C18.2287 18.7735 17.8458 19.108 17.4639 19.4397C17.082 19.7715 16.7004 20.1039 16.3191 20.4368L16.3037 20.4505C16.1033 20.6227 15.9674 20.7124 15.835 20.7124C15.7027 20.7124 15.5567 20.6136 15.3519 20.4115L14.5932 19.6745C13.8508 18.9539 13.0839 18.2088 12.3271 17.4864C11.9139 17.1238 11.5982 16.6635 11.4088 16.1475C11.3274 15.8827 11.2802 15.6085 11.2683 15.3317V15.3145C11.2497 14.6769 11.4541 14.0529 11.8463 13.5499C12.2384 13.0468 12.7938 12.6964 13.4166 12.5589C13.8947 12.4516 14.3938 12.4865 14.8524 12.6593C15.3109 12.8321 15.7089 13.1353 15.9973 13.5315C15.9982 13.533 15.9994 13.5342 16.0009 13.5351C16.0024 13.536 16.0042 13.5364 16.0059 13.5364C16.0076 13.5364 16.0094 13.536 16.0109 13.5351C16.0124 13.5342 16.0136 13.533 16.0145 13.5315C16.4352 12.9856 17.0539 12.6274 17.7368 12.5344C18.0903 12.4862 18.4499 12.5116 18.7931 12.6091C19.1363 12.7066 19.4556 12.874 19.731 13.1009C20.0338 13.3536 20.2799 13.6673 20.4533 14.0215C20.6267 14.3758 20.7234 14.7626 20.7371 15.1567ZM26 15.9998C26 14.0219 25.4135 12.0884 24.3146 10.4439C23.2157 8.79935 21.6538 7.51761 19.8264 6.76079C17.9991 6.00397 15.9883 5.80604 14.0484 6.19204C12.1086 6.57804 10.3267 7.53062 8.92829 8.92933C7.52984 10.328 6.57758 12.11 6.19193 14.05C5.80628 15.9899 6.00457 18.0006 6.76173 19.8278C7.51888 21.6551 8.80089 23.2167 10.4456 24.3153C12.0903 25.4139 14.0239 26.0001 16.0018 25.9998C18.6528 25.9964 21.1942 24.9417 23.0685 23.067C24.9429 21.1923 25.9971 18.6507 26 15.9998ZM24.0004 15.9998C24.0005 17.5822 23.5314 19.1292 22.6524 20.445C21.7733 21.7608 20.5238 22.7863 19.0618 23.392C17.5999 23.9976 15.9911 24.156 14.4391 23.8473C12.8871 23.5385 11.4615 22.7765 10.3426 21.6575C9.22368 20.5384 8.46178 19.1128 8.15321 17.5607C7.84465 16.0086 8.00329 14.3999 8.60907 12.938C9.21485 11.4761 10.2406 10.2267 11.5565 9.34779C12.8724 8.46888 14.4194 7.99994 16.0018 8.0003C18.1224 8.00318 20.1554 8.84693 21.6548 10.3465C23.1542 11.8461 23.9977 13.8791 24.0004 15.9998Z" fill="white"/>
</svg>
