<svg width="32" height="32" viewBox="0 0 32 32" fill="none" xmlns="http://www.w3.org/2000/svg">
<circle cx="16" cy="16" r="16" fill="#40D3F5"/>
<path d="M23.11 17.7313C24.0346 16.4756 24.533 14.957 24.5322 13.3976C24.5322 9.31854 21.1784 6 17.0603 6C12.9423 6 9.59208 9.31763 9.59208 13.3976C9.59208 17.4775 12.946 20.796 17.0622 20.796C18.9233 20.7992 20.7187 20.1082 22.0975 18.8581L22.849 19.6276C19.4951 22.6815 14.2667 22.5999 11.0179 19.3838C10.2257 18.6011 9.59664 17.669 9.16732 16.6414C8.738 15.6138 8.51694 14.5112 8.51694 13.3976C8.51694 12.2839 8.738 11.1813 9.16732 10.1537C9.59664 9.12615 10.2257 8.19401 11.0179 7.41135C11.0885 7.34215 11.1446 7.25956 11.1828 7.16843C11.2211 7.0773 11.2408 6.97947 11.2408 6.88063C11.2408 6.78179 11.2211 6.68393 11.1828 6.5928C11.1446 6.50167 11.0885 6.4191 11.0179 6.3499C10.875 6.20836 10.682 6.12895 10.4809 6.12895C10.2797 6.12895 10.0867 6.20836 9.94378 6.3499C9.01122 7.27154 8.27083 8.36907 7.76551 9.57892C7.2602 10.7888 7 12.0869 7 13.398C7 14.7092 7.2602 16.0073 7.76551 17.2171C8.27083 18.427 9.01122 19.5245 9.94378 20.4462C11.3624 21.8524 13.1683 22.8034 15.1305 23.1773C14.6794 23.4969 14.3114 23.92 14.0575 24.4111C13.8036 24.9023 13.6711 25.4471 13.6711 26H20.6989C20.6987 25.4361 20.5608 24.8808 20.2972 24.3824C20.0335 23.884 19.652 23.4575 19.186 23.1401C20.9485 22.7678 22.5783 21.9277 23.9041 20.7081C23.9267 20.69 24.9991 19.6639 24.9991 19.6639L23.11 17.7313ZM21.8954 10.9193L21.1548 11.7632L19.06 9.48531L19.971 8.84174C20.7851 9.35158 21.4493 10.0686 21.8954 10.9193ZM16.2155 11.6925L18.2215 10.0845L20.4759 12.5401L18.7536 14.3602L16.2155 11.6925ZM18.0031 15.0364L15.9554 16.6046L13.7536 14.2886L15.4867 12.3851L18.0031 15.0364ZM18.9449 8.33866L18.2986 8.79642C18.2841 8.78282 17.3921 8.01867 17.3921 8.01867C17.9227 8.04789 18.446 8.15573 18.9449 8.33866ZM15.9654 8.11658L17.4538 9.39648L15.523 10.9628L13.7618 9.10733C14.413 8.61595 15.1659 8.2765 15.9654 8.11386V8.11658ZM13.0203 9.78898L14.7933 11.6545L13.1272 13.4719L11.8782 11.7496C12.1136 11.0216 12.5031 10.3529 13.0203 9.78898ZM11.6225 13.1229C11.6225 13.1229 12.3414 14.12 12.4447 14.2469L11.841 14.9349C11.6932 14.4454 11.6162 13.2118 11.6225 13.122V13.1229ZM12.2752 15.9683L13.081 15.051L15.1151 17.1947L14.0944 17.9199C13.3343 17.4314 12.7088 16.76 12.2752 15.9674V15.9683ZM15.1069 18.4302L15.8865 17.8809L16.9407 18.7874C16.3132 18.7764 15.6925 18.6552 15.1069 18.4293V18.4302ZM18.3185 18.645L16.7331 17.2808L18.6983 15.7607L20.4577 17.6108C19.8292 18.1082 19.0988 18.461 18.3185 18.6441V18.645ZM21.1847 16.9146L19.4479 15.0863L21.0959 13.364L22.2652 14.9866C22.0431 15.6972 21.6751 16.3536 21.1847 16.9137V16.9146ZM22.5018 13.587L21.7766 12.5827L22.3123 11.9726C22.4411 12.4259 22.5054 13.5236 22.5018 13.5861V13.587Z" fill="white"/>
</svg>
