<svg width="16" height="16" viewBox="0 0 16 16" fill="none" xmlns="http://www.w3.org/2000/svg">
<path d="M6.93604 3.27992C4.9362 3.27992 3.31182 4.89488 3.31182 6.88023C3.31182 8.86558 4.9391 10.4798 6.93604 10.4798C8.93299 10.4798 10.5653 8.8663 10.5653 6.88023C10.5653 4.89415 8.93662 3.27992 6.93604 3.27992ZM6.93604 9.16856C6.4846 9.16341 6.04477 9.02484 5.6719 8.77029C5.29903 8.51573 5.0098 8.15657 4.84059 7.738C4.67139 7.31944 4.62978 6.86017 4.721 6.41801C4.81222 5.97585 5.0322 5.57055 5.35324 5.25313C5.67429 4.93571 6.08205 4.72034 6.52522 4.63414C6.96838 4.54794 7.42715 4.59475 7.84377 4.76869C8.26039 4.94263 8.61625 5.23592 8.86656 5.61165C9.11687 5.98738 9.25045 6.42875 9.25047 6.88023C9.24645 7.49041 9.00048 8.07407 8.56657 8.5031C8.13265 8.93212 7.54624 9.17145 6.93604 9.16856ZM15.7545 14.6187C15.7545 14.6187 14.2693 13.1893 12.3166 11.217C13.3232 9.99597 13.8734 8.46267 13.8728 6.88023C13.8728 3.08639 10.7611 0 6.93604 0C3.11104 0 0 3.08639 0 6.88023C0 10.6741 3.11176 13.7597 6.93604 13.7597C8.46555 13.7624 9.95305 13.2594 11.167 12.3289C12.9892 14.1453 14.6143 15.7559 14.6143 15.7559C14.6888 15.8325 14.7777 15.8936 14.8759 15.9355C14.9742 15.9774 15.0798 15.9993 15.1866 16C15.2934 16.0007 15.3993 15.9801 15.4981 15.9395C15.5969 15.8989 15.6866 15.839 15.762 15.7634C15.8374 15.6878 15.8971 15.5979 15.9374 15.499C15.9778 15.4001 15.9981 15.2942 15.9971 15.1874C15.9961 15.0806 15.9739 14.9751 15.9318 14.8769C15.8896 14.7788 15.8284 14.69 15.7516 14.6158L15.7545 14.6187ZM6.93604 12.1672C3.99245 12.1672 1.59901 9.79555 1.59901 6.88023C1.59901 3.9649 3.991 1.59393 6.93604 1.59393C9.88109 1.59393 12.2738 3.96563 12.2738 6.88023C12.2738 9.79483 9.88037 12.1672 6.93604 12.1672Z" fill="white"/>
</svg>
