<svg width="28" height="28" viewBox="0 0 28 28" fill="none" xmlns="http://www.w3.org/2000/svg">
<path d="M24.0608 0.199553L1.85466 8.75079C1.36018 8.94054 0.927383 9.26258 0.603573 9.68171C0.279762 10.1008 0.0774036 10.6009 0.0186176 11.1273C-0.0414118 11.6534 0.0443725 12.1859 0.266589 12.6665C0.488805 13.1471 0.838896 13.5574 1.27858 13.8524L9.72591 18.2323C9.74257 18.2444 9.75721 18.2591 9.76931 18.2757L14.1505 26.7213C14.4457 27.1605 14.8558 27.5103 15.3361 27.7325C15.8164 27.9548 16.3484 28.041 16.8743 27.9818C17.4002 27.9226 17.8998 27.7203 18.3187 27.3968C18.7375 27.0733 19.0596 26.6411 19.2498 26.1473L27.8014 3.93897C28.0067 3.4171 28.0541 2.84642 27.9377 2.29784C27.8214 1.74927 27.5464 1.24697 27.147 0.853355C26.7535 0.453512 26.251 0.178311 25.7022 0.0620504C25.1534 -0.0542103 24.5826 -0.00638954 24.0608 0.199553ZM16.6879 25.1603C16.6798 25.1861 16.664 25.2089 16.6426 25.2255C16.6212 25.2422 16.5953 25.2519 16.5682 25.2534C16.541 25.2588 16.5129 25.2555 16.4877 25.2439C16.4626 25.2324 16.4417 25.2131 16.4282 25.189L12.047 16.7413C11.8383 16.4305 11.5711 16.1633 11.2603 15.9545L2.81293 11.5711C2.78856 11.5578 2.7691 11.537 2.75739 11.5118C2.74568 11.4866 2.74233 11.4583 2.74783 11.4311C2.75 11.3983 2.76363 11.3673 2.78633 11.3436C2.80196 11.3285 2.82089 11.3172 2.84163 11.3107L22.1981 3.85987L12.8352 13.2238C12.5826 13.4823 12.442 13.83 12.444 14.1915C12.4461 14.553 12.5905 14.8991 12.8461 15.1548C13.1016 15.4104 13.4477 15.555 13.8091 15.5572C14.1706 15.5593 14.5184 15.4189 14.777 15.1663L24.1406 5.80168L16.6879 25.1603Z" fill="white"/>
</svg>
