<svg width="16" height="16" viewBox="0 0 16 16" fill="none" xmlns="http://www.w3.org/2000/svg">
<path d="M15.677 6.4224C16.228 5.80443 16.0586 5.17196 15.2084 4.96162C13.8309 4.61637 13.1715 3.88887 13.2669 2.46797C13.3242 1.65851 12.7953 1.15733 11.9138 1.5004C10.5691 2.02336 9.59837 1.74991 8.82604 0.557491C8.39409 -0.120681 7.70494 -0.226582 7.23636 0.498736C6.40984 1.77239 5.35819 2.06107 3.97304 1.45543C3.87726 1.42711 3.77888 1.40744 3.67921 1.39667C2.75425 1.39667 2.66878 2.122 2.70159 2.78784C2.75883 3.90774 2.25972 4.47421 1.16533 4.81874C-0.208382 5.25393 -0.293857 5.58685 0.56929 6.77709C0.873112 7.09973 1.04543 7.51504 1.05509 7.94793C1.06475 8.38081 0.911108 8.80268 0.621949 9.13726C-0.344226 10.4515 -0.25112 10.6749 1.37215 11.2407C1.76212 11.329 2.10735 11.5441 2.34815 11.8487C2.58896 12.1533 2.71019 12.5283 2.69091 12.9089C2.74814 14.6178 3.00304 14.7846 4.70339 14.3356C5.07385 14.1926 5.48564 14.179 5.86565 14.2972C6.24567 14.4154 6.56934 14.6577 6.77922 14.9812C7.86368 16.3469 8.14148 16.3419 9.25876 14.9522C9.46073 14.6441 9.76932 14.4126 10.1315 14.2975C10.4936 14.1823 10.8867 14.1906 11.243 14.3211C13.0929 14.794 13.2479 14.6838 13.3333 12.7842C13.3094 12.4512 13.4109 12.121 13.6197 11.8525C13.8284 11.5841 14.1308 11.395 14.4727 11.319C14.7399 11.2407 14.9948 11.1304 15.2558 11.0333C16.0189 10.7475 16.2326 10.2216 15.7213 9.6254C14.778 8.5367 14.6742 7.53504 15.677 6.4224Z" fill="#FD1053"/>
</svg>
