<svg width="32" height="32" viewBox="0 0 32 32" fill="none" xmlns="http://www.w3.org/2000/svg">
<path d="M16 32C24.8366 32 32 24.8366 32 16C32 7.16344 24.8366 0 16 0C7.16344 0 0 7.16344 0 16C0 24.8366 7.16344 32 16 32Z" fill="#010202"/>
<path d="M22.5939 20.9893C21.8908 21.087 21.1877 20.5006 21.0873 19.8164C21.0873 19.7186 21.0873 19.7186 21.0873 19.6209C21.0873 18.839 21.7904 18.1548 22.5939 18.2525C23.3974 18.2525 24 18.839 24 19.6209C24 20.3051 23.3974 20.9893 22.6943 20.9893H22.5939Z" fill="#DE265A"/>
<path d="M22.3628 12C22.4633 12 22.5637 12.0977 22.5637 12.1955V12.2932L19.8518 20.7968C19.8518 20.8945 19.651 20.9922 19.5505 20.9922H16.9391C16.8387 20.9922 16.6378 20.8945 16.6378 20.7968L15.3321 16.4961L14.0264 20.7968C13.9259 20.8945 13.8255 20.9922 13.725 20.9922H11.1136C11.0132 20.9922 10.8123 20.8945 10.8123 20.7968L8 12.1955C8 12.0977 8 12 8.10044 12H8.20088H11.6158C11.7163 12 11.9171 12.0977 11.9171 12.1955L12.8211 15.8119L13.725 12.1955C13.725 12.0977 13.9259 12 14.0264 12H16.6378C16.9391 12 16.9391 12.0977 16.9391 12.1955L17.8431 15.8119L18.747 12.1955C18.747 12.0977 18.9479 12 19.0483 12H22.3628Z" fill="white"/>
</svg>
