<svg width="120" height="24" viewBox="0 0 120 24" fill="none" xmlns="http://www.w3.org/2000/svg">
<path d="M18.3997 19.9442L14.6501 6.03874L10.8536 19.9442C10.5582 20.9985 10.3236 21.7554 10.1497 22.2149C9.95797 22.6977 9.64457 23.1226 9.23998 23.4484C8.74947 23.8316 8.13737 24.0253 7.51571 23.9941C7.01816 24.0136 6.52424 23.9017 6.08372 23.6696C5.70479 23.4496 5.39089 23.1332 5.17397 22.7525C4.92266 22.3105 4.73103 21.8371 4.60409 21.3447C4.45759 20.8017 4.32576 20.2982 4.20856 19.8343L0.348366 4.22072C0.152948 3.5457 0.0361929 2.85035 0.000432194 2.14852C-0.00540127 1.86533 0.0478736 1.58404 0.15684 1.3226C0.265807 1.06115 0.428082 0.825299 0.633307 0.630082C0.839586 0.427435 1.08455 0.268404 1.35361 0.162444C1.62266 0.0564845 1.91029 0.00577947 2.19936 0.0133459C2.53527 -0.0280626 2.87601 0.0273554 3.18148 0.173085C3.48696 0.318814 3.74445 0.548778 3.92362 0.835914C4.28809 1.59298 4.54805 2.39604 4.69639 3.22308L7.73399 16.7645L11.1342 4.09254C11.3191 3.34197 11.5463 2.60243 11.8146 1.8775C12.022 1.36221 12.3601 0.909834 12.7955 0.564899C13.3291 0.170326 13.9838 -0.0255401 14.6464 0.0111328C15.311 -0.0299868 15.9673 0.17583 16.4894 0.589063C16.8926 0.925979 17.2053 1.3583 17.3991 1.84674C17.5681 2.30039 17.7949 3.04923 18.0796 4.09326L21.512 16.7652L24.5489 3.22381C24.6592 2.66324 24.7993 2.10894 24.9686 1.56328C25.1049 1.15495 25.3381 0.785727 25.6483 0.487242C25.8387 0.319266 26.0605 0.190816 26.3009 0.109332C26.5413 0.027848 26.7956 -0.0050305 27.0488 0.0126082C27.3359 0.00650969 27.6213 0.0572087 27.8887 0.161796C28.156 0.266383 28.4001 0.422796 28.6068 0.622034C28.8155 0.816718 28.9805 1.05344 29.091 1.31656C29.2014 1.57969 29.2549 1.86323 29.2477 2.14852C29.2052 2.84964 29.0883 3.54427 28.8991 4.22072L25.0389 19.8343C24.7752 20.8891 24.5555 21.6616 24.3797 22.1519C24.1997 22.6505 23.8945 23.0945 23.4933 23.4411C22.9944 23.8379 22.3658 24.0352 21.7295 23.9948C21.1091 24.0258 20.4979 23.835 20.0053 23.4564C19.6032 23.1397 19.2921 22.7222 19.1036 22.2464C18.94 21.7976 18.7054 21.0302 18.3997 19.9442Z" fill="#171717"/>
<path d="M41.7608 21.5579V21.0041C41.2856 21.616 40.7384 22.1684 40.131 22.6493C39.5722 23.0867 38.9403 23.4215 38.2646 23.6381C37.5162 23.865 36.7371 23.9745 35.9551 23.9626C34.9804 23.979 34.0164 23.7564 33.1475 23.3144C32.3511 22.9118 31.6848 22.2922 31.2255 21.5271C30.6192 20.3006 30.3415 18.9377 30.4197 17.5717V9.01337C30.3657 8.31698 30.5748 7.62565 31.0057 7.07596C31.2022 6.86316 31.4425 6.69561 31.7102 6.58494C31.9778 6.47427 32.2663 6.42312 32.5557 6.43504C32.8504 6.42346 33.1442 6.4754 33.417 6.58738C33.6899 6.69936 33.9355 6.86874 34.1371 7.08401C34.5754 7.62764 34.7904 8.31772 34.7385 9.01411V15.9273C34.7222 16.7755 34.8073 17.6226 34.9919 18.4507C35.1223 19.0646 35.4402 19.6228 35.9016 20.0482C36.4027 20.4549 37.0372 20.6606 37.6816 20.6254C38.4171 20.6233 39.1346 20.3972 39.7384 19.9772C40.3648 19.5646 40.8547 18.9755 41.1462 18.2844C41.4671 16.9708 41.5905 15.6167 41.5125 14.2667V9.01485C41.4602 8.31854 41.675 7.62845 42.1131 7.08475C42.3123 6.87042 42.5554 6.70151 42.8258 6.58953C43.0961 6.47754 43.3874 6.42511 43.6799 6.43578C43.9692 6.42391 44.2577 6.47508 44.5253 6.58575C44.793 6.69642 45.0333 6.86394 45.2298 7.0767C45.6606 7.62646 45.8697 8.31774 45.8158 9.01411V21.5271C45.8662 22.1926 45.6658 22.8529 45.254 23.3781C45.0655 23.5751 44.8387 23.7315 44.5875 23.8376C44.3363 23.9437 44.0661 23.9973 43.7935 23.9951C43.5208 23.9929 43.2515 23.935 43.0021 23.8248C42.7526 23.7147 42.5284 23.5547 42.3431 23.3547C41.9296 22.8505 41.7216 22.2088 41.7608 21.5579V21.5579Z" fill="#171717"/>
<path d="M52.7362 8.82288V9.34515C53.3919 8.43344 54.2427 7.67948 55.2267 7.13818C56.1902 6.65423 57.2572 6.41237 58.3353 6.43353C59.4002 6.4153 60.4519 6.67161 61.389 7.17775C62.263 7.65045 62.9658 8.38652 63.3975 9.28142C63.6835 9.81305 63.8711 10.392 63.9512 10.9903C64.045 11.768 64.0871 12.551 64.0773 13.3343V21.3703C64.1289 22.0751 63.9175 22.7739 63.4839 23.3319C63.2916 23.5495 63.0536 23.7218 62.787 23.8367C62.5203 23.9516 62.2315 24.006 61.9413 23.9963C61.6462 24.006 61.3526 23.95 61.0817 23.8323C60.8109 23.7146 60.5696 23.5382 60.3753 23.3158C59.9417 22.7637 59.7276 22.0708 59.7739 21.3703V14.1722C59.8338 13.0519 59.6306 11.9331 59.1806 10.9053C58.785 10.1519 57.9967 9.77487 56.8154 9.77439C56.0582 9.77042 55.3201 10.012 54.7117 10.4629C54.0672 10.9377 53.5819 11.597 53.32 12.3535C53.0535 13.5361 52.947 14.7492 53.0036 15.9602V21.3703C53.0576 22.0802 52.8398 22.784 52.3941 23.3392C52.1946 23.5556 51.9507 23.7264 51.6793 23.8402C51.4078 23.9539 51.115 24.0079 50.8208 23.9985C50.5299 24.0065 50.2409 23.9496 49.9748 23.8319C49.7088 23.7142 49.4723 23.5386 49.2826 23.318C48.8489 22.7659 48.6347 22.073 48.6812 21.3725V8.89102C48.6306 8.23179 48.8217 7.57669 49.2188 7.0481C49.4039 6.84408 49.6318 6.6836 49.8862 6.57822C50.1407 6.47285 50.4153 6.42519 50.6904 6.43867C51.0502 6.43435 51.4045 6.5272 51.7159 6.70747C52.0324 6.90012 52.2867 7.17985 52.4484 7.51321C52.6472 7.92061 52.7459 8.36963 52.7362 8.82288V8.82288Z" fill="#171717"/>
<path d="M78.9182 21.5263V21.0993C78.4061 21.7 77.8307 22.2437 77.202 22.721C76.6456 23.135 76.026 23.4566 75.3671 23.6732C74.6691 23.8955 73.9402 24.005 73.2078 23.9977C72.2125 24.0056 71.2293 23.7798 70.3371 23.3385C69.445 22.8918 68.6639 22.2514 68.0511 21.464C67.386 20.6109 66.8889 19.6393 66.5861 18.6008C66.2457 17.4454 66.0779 16.2461 66.088 15.0416C66.088 12.3417 66.7472 10.2378 68.0657 8.72983C68.7093 7.98818 69.5108 7.40006 70.4113 7.00865C71.3119 6.61724 72.2887 6.43247 73.27 6.46792C74.3554 6.43385 75.4337 6.65303 76.4197 7.1081C77.3658 7.60691 78.2128 8.27444 78.9189 9.07777V2.70516C78.8693 1.99527 79.0558 1.2889 79.4492 0.695948C79.6283 0.469927 79.859 0.290184 80.1219 0.171779C80.3849 0.0533728 80.6724 -0.00023017 80.9603 0.0154822C81.243 -0.00125766 81.5258 0.0463269 81.7874 0.154678C82.049 0.263029 82.2827 0.429327 82.4707 0.641025C82.8602 1.17312 83.0482 1.82621 83.001 2.48395V21.5285C83.0519 22.1953 82.8483 22.8567 82.4312 23.3795C82.2449 23.5822 82.0171 23.7422 81.7632 23.8487C81.5093 23.9551 81.2355 24.0055 80.9603 23.9962C80.6841 24.0033 80.4097 23.9496 80.1565 23.8388C79.9034 23.7281 79.6776 23.563 79.4954 23.3553C79.0802 22.8397 78.8742 22.1868 78.9182 21.5263V21.5263ZM70.4214 15.183C70.3936 16.2068 70.5795 17.2251 70.9671 18.173C71.2735 18.925 71.7932 19.5709 72.4621 20.0313C73.0748 20.4422 73.7966 20.6601 74.5343 20.6568C75.2704 20.6634 75.9927 20.4574 76.6145 20.0635C77.2839 19.6183 77.8068 18.9854 78.1176 18.244C78.521 17.2754 78.7126 16.2317 78.6794 15.183C78.7049 14.1655 78.5134 13.1542 78.1176 12.2164C77.7967 11.4552 77.2707 10.7979 76.5984 10.3179C75.9847 9.88694 75.2527 9.65665 74.5028 9.65862C73.7423 9.64903 72.9989 9.88483 72.383 10.331C71.7269 10.8238 71.2248 11.4933 70.9356 12.2611C70.5776 13.1927 70.4047 14.1852 70.4265 15.183H70.4214Z" fill="#171717"/>
<path d="M98.0931 16.2737H89.6461C89.6375 17.1731 89.8408 18.0619 90.2394 18.8682C90.5665 19.555 91.0841 20.1334 91.7305 20.5344C92.377 20.9354 93.1251 21.1422 93.8857 21.1301C94.3638 21.1353 94.8403 21.0741 95.3016 20.9484C95.7415 20.8215 96.1599 20.6297 96.5432 20.3793C96.9321 20.1298 97.3023 19.8522 97.6507 19.5486C97.9881 19.2556 98.4257 18.8547 98.9633 18.3459C99.2361 18.1395 99.5742 18.0386 99.9155 18.0617C100.307 18.0447 100.691 18.1754 100.991 18.4279C101.131 18.5582 101.24 18.7176 101.311 18.8948C101.382 19.072 101.413 19.2627 101.402 19.4534C101.371 19.9417 101.213 20.4134 100.943 20.8217C100.581 21.4058 100.112 21.9158 99.5595 22.3247C98.8562 22.8497 98.0702 23.2534 97.2339 23.5194C96.1938 23.8519 95.1064 24.0123 94.0146 23.9941C91.2415 23.9941 89.0848 23.203 87.5446 21.6208C86.0044 20.0387 85.2346 17.8927 85.2351 15.183C85.224 13.9755 85.4167 12.7747 85.805 11.6312C86.1552 10.5892 86.721 9.63253 87.4655 8.82362C88.2144 8.02909 89.1342 7.41519 90.1552 7.02831C91.2868 6.59943 92.4889 6.38722 93.6989 6.40277C95.2162 6.35987 96.7168 6.72894 98.0411 7.47074C99.1851 8.11917 100.124 9.07568 100.751 10.2315C101.334 11.288 101.644 12.4734 101.653 13.68C101.653 14.766 101.342 15.4699 100.72 15.7917C99.8934 16.1538 98.9942 16.3188 98.0931 16.2737V16.2737ZM89.6461 13.8221H97.4764C97.4716 12.6129 97.0496 11.4424 96.2817 10.5083C95.9308 10.1421 95.5061 9.85474 95.0357 9.6653C94.5653 9.47586 94.0599 9.3887 93.5532 9.4096C93.0574 9.39447 92.5641 9.48628 92.107 9.67878C91.6498 9.87128 91.2394 10.1599 90.9038 10.5252C90.1366 11.4578 89.695 12.6155 89.6461 13.8221V13.8221Z" fill="#171717"/>
<path d="M108.277 17.7607V21.3682C108.332 22.0792 108.111 22.7839 107.661 23.3371C107.462 23.5523 107.219 23.7224 106.949 23.8361C106.679 23.9498 106.388 24.0044 106.095 23.9963C105.806 24.0044 105.519 23.9491 105.254 23.8343C104.989 23.7195 104.752 23.5481 104.56 23.332C104.122 22.7762 103.907 22.0764 103.959 21.3704V9.34522C103.959 7.40463 104.66 6.43408 106.062 6.43359C106.357 6.40728 106.654 6.45587 106.925 6.57482C107.196 6.69378 107.433 6.87927 107.613 7.11408C107.973 7.72135 108.154 8.41774 108.135 9.12327C108.547 8.36799 109.085 7.68852 109.725 7.11408C110.346 6.635 111.117 6.39364 111.9 6.43359C112.824 6.43788 113.731 6.67173 114.542 7.11408C114.907 7.25865 115.222 7.50602 115.45 7.82622C115.677 8.14643 115.807 8.52571 115.823 8.91817C115.831 9.16192 115.785 9.40437 115.691 9.62933C115.597 9.85429 115.456 10.0566 115.278 10.2227C114.968 10.5419 114.544 10.7261 114.099 10.7355C113.707 10.6801 113.323 10.5818 112.952 10.4425C112.435 10.2631 111.894 10.1643 111.347 10.1495C110.787 10.125 110.237 10.3017 109.797 10.6476C109.354 11.045 109.031 11.5582 108.863 12.1294C108.621 12.887 108.467 13.6701 108.405 14.4631C108.32 15.3645 108.277 16.4637 108.277 17.7607Z" fill="#171717"/>
<path d="M116.23 23.9941C115.469 24.0078 114.731 23.7322 114.166 23.2228C113.871 22.9486 113.641 22.6129 113.491 22.2396C113.341 21.8662 113.275 21.4644 113.298 21.0627C113.293 20.6867 113.364 20.3136 113.506 19.9656C113.649 19.6176 113.86 19.3019 114.127 19.0374C114.39 18.7619 114.708 18.5441 115.06 18.3979C115.412 18.2518 115.791 18.1805 116.172 18.1885C116.556 18.1818 116.938 18.2527 117.294 18.3969C117.65 18.5411 117.974 18.7557 118.245 19.0279C118.795 19.5854 119.104 20.3372 119.104 21.1206C119.104 21.9039 118.795 22.6558 118.245 23.2133C117.699 23.7237 116.977 24.0034 116.23 23.9941V23.9941Z" fill="#FD1053"/>
</svg>
